<svg height="40" viewBox="0 0 175 40" width="175" xmlns="http://www.w3.org/2000/svg"><g fill="#fff" fill-rule="evenodd"><path d="m19.3846154.61538462c2.257881 0 4.0317562 1.06338461 5.4569521 1.91753846.53582.32123077 1.0423803.62523077 1.4581132.79938461.4565747.19076923 1.0527431.34830769 1.6842671.51569231 1.5879535.41907692 3.5642089.94092308 5.1070537 2.49907692 1.5428447 1.55753846 2.0603773 3.552 2.4761103 5.15692308.1651959.6369231.3212481 1.2387692.5102177 1.6990769.1725108.4196923.4730333.9304616.7924528 1.4726154.8454862 1.4381539 1.8982293 3.2289231 1.8982293 5.5083077 0 2.2806154-1.0527431 4.0707692-1.8988389 5.5101538-.3188099.5403077-.6193324 1.0516924-.7918432 1.4713847-.1889696.460923-.3456314 1.0627692-.5108273 1.7015384-.4151234 1.6018462-.932656 3.5969231-2.4755007 5.1544616-1.5428448 1.5581538-3.5184906 2.0793846-5.1113208 2.5003077-.6296952.1661538-1.225254.3236923-1.6806096.5144615-.4132946.1729231-.9186357.4763077-1.456894.7987692-1.425196.8547693-3.1984616 1.9181539-5.4575617 1.9181539-2.2591002 0-4.0329753-1.0633846-5.4581713-1.9181539-.53582-.3212307-1.0417707-.6246154-1.4581132-.7987692-.4553556-.1907692-1.0496952-.3483077-1.6848766-.5156923-1.587344-.4196923-3.56298986-.9409231-5.10644414-2.4990769-1.54345428-1.5581539-2.05976778-3.5532308-2.47550073-5.1556923-.16458635-.6369231-.3206386-1.2393847-.5102177-1.7003077-.17190131-.4196923-.47303338-.9304616-.79184325-1.472-.84609579-1.4387693-1.89944848-3.2289231-1.89944848-5.5095385 0-2.28 1.05335269-4.0707692 1.90127721-5.512.31820029-.5403077.61811321-1.0504615.79001452-1.4689231.1895791-.4603077.34563135-1.0627692.5102177-1.6996923.41573295-1.60369229.93265603-3.59876922 2.47550073-5.15630768 1.54345428-1.55753846 3.51970972-2.08 5.10888244-2.4996923.6309144-.16676924 1.2270827-.3243077 1.6824383-.51507693.4163425-.17415384.9229028-.47815384 1.4587228-.79938461 1.4251959-.85415385 3.1984615-1.91753846 5.4575617-1.91753846zm-4.6474311 35.84246158c1.3240058.7938461 2.82418 1.692923 4.6474311 1.692923 1.8226415 0 3.3234252-.8990769 4.6468215-1.692923.5864151-.3513847 1.1405225-.6843077 1.6604934-.9015385.5571553-.2332308 1.2039188-.4043077 1.8896952-.5852308 1.4764006-.3901538 3.1484761-.8313846 4.3871408-2.0824615 1.2386648-1.2510769 1.6763426-2.9390769 2.0628157-4.4283077.1786067-.6923077.3480697-1.3464615.5791001-1.9083077.215791-.5255385.5455733-1.0849231.8930334-1.6769231.7863571-1.336 1.6775617-2.8504615 1.6775617-4.6910769 0-1.84-.8912046-3.3544615-1.6775617-4.6910769-.3474601-.5913846-.6772424-1.1507693-.8930334-1.6756923v-.0006154c-.2310304-.5624616-.4004934-1.216-.5797097-1.9083077-.3858635-1.4892308-.8235413-3.17784616-2.0622061-4.4283077-1.2386647-1.25046154-2.9107402-1.69230769-4.3865312-2.08184615-.6857765-.18092308-1.3331495-.35261539-1.8903048-.58584616-.5205805-.21784615-1.0740783-.54953846-1.6604934-.90153846-1.3240058-.79384615-2.82418-1.69292308-4.6468215-1.69292308-1.8232511 0-3.3234253.89907693-4.6468215 1.69292308-.5864151.352-1.1405225.68369231-1.661103.90153846-.5565458.23323077-1.2045283.40430769-1.8896953.58523077-1.47579096.39015385-3.14786643.832-4.38714074 2.08246154s-1.67634252 2.9390769-2.06281567 4.4283077c-.17921626.6923077-.34867925 1.3458461-.57970973 1.9089231-.21518142.524923-.54496371 1.0843077-.89303338 1.6756923-.78635704 1.3366154-1.6769521 2.8510769-1.6769521 4.6910769 0 1.8406154.89059506 3.3550769 1.6769521 4.6916923.34806967.5913846.67785196 1.1507692.89303338 1.6763077.23103048.5618462.40049347 1.216.57970973 1.9083077.38586357 1.4892308.82354136 3.1772308 2.06281567 4.4283077 1.23866473 1.2510769 2.91134978 1.6923077 4.38653124 2.0824615.6857765.1809231 1.3331495.352 1.8903048.5852308.5205805.2172308 1.0740783.5501538 1.6604934.9015385zm6.3365748-25.8873847c.1779971-.0024615.3566037-.0036923.5346008-.0036923 1.4142236 0 2.8333237.088 4.2054863.4283077.6949201.1723077 1.3904499.4172308 1.9457764.8732308.2706532.2221538.5132656.5138461.5571553.8627692.0432802.3495385-.185312.7470769-.5321625.7790769-.1170392.011077-.2383454-.0166153-.3578229-.0443076-.1865313-.043077-.3681858-.0861539-.5187519.0166153-.1895791.1304616-.1920174.411077-.1377648.6363077.3188098 1.3144616 1.776923 2.0769231 2.1780261 3.3692308.0536429.1692308.0804644.3735385-.0316981.5113846-.0914369.1126154-.2468796.1446154-.3895211.1686154-.6656603.1144615-1.3361974.2283077-2.0110014.2006154-.6741945-.0270769-1.3611902-.2086154-1.891524-.6301539-.7729463-.6147692-1.102119-1.632-1.7202322-2.404923-.6662699-.8344616-1.6483019-1.3507693-2.6858055-1.616-.2048186-.0523077-.4114659-.0947693-.6181132-.1286154-1.255733-.2018462-2.5364586-.1009231-3.8062119-.0264616-1.2697533.0738462-2.5602322.1181539-3.7946299-.1907692-.2608999-.0652308-.5266764-.1513846-.7278375-.3323077-.8314659-.7513846.5291147-1.2732308 1.0972424-1.4123077 2.847344-.6953846 5.7769812-1.0172307 8.7047896-1.0566154zm-5.4880407 5.952c1.163077-.2301538 2.3487083-.3470769 3.5337301-.3470769.1219158 0 .2444412.0012308.366357.0036923.5400871.0110769 1.1106531.0572308 1.5501597.3729231.5108273.368.7290566 1.0141538.9174165 1.6178462.034746.1095384.069492.2246153.0761974.3384615.0042671.0596923 0 .1193846-.0146299.1778461-.0414514.1624616-.1651959.2892308-.2883309.4012308-.9667925.8775385-2.2475182 1.3544616-3.5404354 1.4843077-1.2929173.1298462-2.601074-.0695385-3.8537591-.4178461-.3645283-.1015385-.7461248-.2289231-.9923948-.5193847-.4815675-.5710769-.2718723-1.6295384.1749492-2.1587692.4992453-.592 1.3489986-.8092308 2.0707402-.9532308zm7.1290276 3.9784616c.3194195-.1569231.6467634-.2387693.9795936-.2387693.223106 0 .4486502.0363077.6766328.1126154.4425545.1476923.8838897.3009231 1.3227867.459077.5224093.188923.8375617.5415384.8503628 1.1261538.007315.3384615.0164587.6769231.030479 1.0141538.0249927.5772308-.2517562.979077-.7308854 1.2492308-.4687663.264-.9485051.5101539-1.4239767.7636923-.3182003.1698462-.6571263.2818462-1.0179971.28-.2560233-.0018461-.5181423-.024-.7668506-.0824615-.5723947-.1353846-1.1423512-.2849231-1.7043831-.456-.2432221-.0738462-.4803483-.192-.693701-.3316923-.2109144-.1378462-.2993034-.3667693-.2816256-.6283077.0128012-.1944616.0213353-.3889231.0323077-.5944616 0-.1833846.0060958-.3784615-.0012191-.572923-.0091437-.272.0701016-.5181539.2645573-.6966154.204209-.1876923.4254862-.3673846.6674891-.4978462.5906821-.3187692 1.1941655-.6098461 1.7964296-.9058461zm4.5907402 4.7156923c.1743396-.0947692.3498984-.1464616.5230189-.1464616.2005515 0 .3986647.0689231.5900725.2209231.223106.1772308.4523077.3476923.6827286.5150769.3889115.2806154.4919304.6793847.4376778 1.1267693-.0640058.5230769-.1444702 1.0449231-.2322496 1.5649231-.0804644.48-.3206386.8590769-.7479536 1.1021538-.4279245.2436923-.8582873.4855385-1.2898693.7249231-.2298114.128-.4766909.2-.7540494.2350769-.1847024-.0621538-.3809869-.1027692-.5534978-.1895385-.4090276-.2043077-.8058636-.4332307-1.2100145-.6473846-.4004935-.2129231-.5541074-.544-.4382874-.984.1328883-.504.2682148-1.008.4096372-1.5107692.1219158-.4375385.4047605-.7593846.7802612-.9852308.5925109-.3556923 1.194775-.6978461 1.8025254-1.0264615zm2.5827867-5.2596923c.0103628-.0012308.0207256-.0018462.0304789-.0018462.0889986 0 .1725109.0535385.2438317.1101539.7430769.5827692 1.0039767 1.5876923 1.1490566 2.5267692.0457184.3015385.0847315.6098462.0676632.9126154-.0060958.1009231-.0176778.2012308-.0377939.3009231-.0804644.3981538-.3102757.7864615-.6766328.9581538-.069492.0326154-.1456894.0572308-.2212772.0467692-.0768069-.0104615-.1444702-.0553846-.2078665-.1003077-.354775-.2504615-.693701-.5378461-.9229027-.9083076-.6607838-1.0701539-.6004354-2.9156924.3901306-3.7452308.0548621-.0455385.1152105-.0898462.1853121-.0996923z"/><g transform="translate(52.004717 9.535282)"><path d="m17.2704122 1.33302564c-.4047605.01230769-.7924528.10030769-1.1185777.33907692-.2743106.20061539-.4718142.488-.6638316.76923077-1.9762554 2.89292308-3.9512917 5.78584616-5.92693759 8.67876927-1.80740203-2.63876927-3.61419448-5.2775385-5.42159651-7.91630773-.396836-.57969231-.80891147-1.17476923-1.39532656-1.55753846-.35355588-.23076923-.78208999-.36738462-1.20513789-.35076923-.28101596.01107692-.7930624.08861538-.84975326.42953846-.0408418.24553846-.00487663.52553846-.00548621.77476923-.00060958.27261539-.00121916.54584616-.00182874.81969231-.00121916.54646154-.00182874 1.09292308-.00243832 1.63938461-.00304789 2.18584616-.00365747 4.3723077-.00182873 6.55815381.00243831 2.1864616.00670537 4.3723077.01341074 6.5587693.00060958.1526154.00121915.3058461.00182873.4584615 1.10029028-.0012308 2.20119013-.0024615 3.30208999-.0036923.01219158-3.1975385.02438316-6.3944615.03657474-9.592 1.46542816 2.1101538 2.93024674 4.2203077 4.3956749 6.3304615.2944267.4233847.70528301.8996923 1.21062409.8092308.28406386-.0516923.50290272-.2756923.69431062-.4947692 1.7531495-2.0123077 2.886357-4.5292308 4.7364296-6.45107694.0164586 3.12800004.0323077 6.25661534.0487663 9.38523074h3.325254c-.0012192-5.6916923-.0018287-11.38276921-.0030479-17.07446151-.3797678-.06338462-.78209-.12184616-1.1691727-.11015385"/><path d="m51.4068418 10.9250256c.1956749-1.5544615 1.5099274-2.62953842 3.1795646-2.62215381 1.5970972.008 2.8217416 1.07569231 2.9771843 2.62215381zm6.3237736-4.60123073c-2.3791872-1.26769231-5.7373585-.90707692-7.6270537.89292308-2.1719304 2.06707692-2.6065602 4.64738465-1.7208418 7.39938465.8887663 2.7612307 3.0119303 4.0424615 5.8080697 4.2307692 2.1981422.1483077 4.2134107-.4141539 6.0988388-1.72-.4401161-.7907692-.8479245-1.5224615-1.2508563-2.2467692-4.081132 1.9667692-7.2613062 1.3538461-7.6215675-1.448h9.212569c.0682728-.2566154.138984-.4393847.1639768-.6283077.3614804-2.7181539-.8656024-5.30892311-3.063135-6.48000003z"/><path d="m71.4407808 5.88231795c-.2993033-.00492308-.6150653-.00553846-.874746.14523077-.3614804.20984615-.5138751.648-.640058 1.04984615-.7442961 2.37353846-1.5465022 4.72800003-2.4072279 7.06153843-.9832511-2.516923-1.9793033-5.02953843-2.9869376-7.53661535-.0841219-.208-.1773875-.42892308-.3633091-.55261539-.1792163-.11876923-.4078084-.12307692-.6223803-.12307692-.5364296-.00061538-1.0728592-.00123077-1.6098984-.00123077-.2682148-.00061538-.5370392-.00061538-.805254-.00061538-.1286212-.00061539-.2572424-.0043077-.3864731-.00061539-.1493469.00369231-.1822642.00184616-.1408128.14830769.0713208.25415385.2212772.5083077.3267344.75015385.1091147.25046154.2182293.49969231.327344.75015385.2176197.4996923.435849.99938461.6540783 1.4996923.8716982 1.99938461 1.7440059 3.99938461 2.615704 5.99876921.3486792.7993846.697968 1.5993846 1.0460377 2.3993846.1591001.3636923.320029.7403077.3230769 1.1378462.0024383.3950769-.1560522.7784615-.3773294 1.1046154-.8101307 1.1950769-2.554746 1.6227692-3.8177939.9366154l-.5461829 2.6892307c1.299013.728 2.9351234.8941539 4.2914369.2793846 1.0009288-.4541538 1.7927721-1.2923076 2.3773584-2.2301538.5845864-.9384615.9808128-1.9803077 1.3733818-3.0153846 1.572714-4.1458462 3.1460377-8.2916923 4.7187518-12.43753847-.2968651-.008-.5943397-.01476924-.8912047-.02153847-.5278955-.01230769-1.0564006-.02215384-1.5842961-.03138461"/><path d="m26.7209608 15.8772103c-1.9701596.0252307-3.5111756-1.6123077-3.4886212-3.707077.0219449-1.9895384 1.5519884-3.54646151 3.4825254-3.54153843 1.9055443.00369231 3.4605806 1.60676923 3.4666764 3.57415383.0067053 2.0326154-1.5166328 3.6498462-3.4605806 3.6744616m-.0073149-10.29969235c-3.879971.00738461-6.7364587 2.81538461-6.7419449 6.62892305-.0060958 3.8695385 2.8552685 6.7156923 6.7516981 6.7163077 3.8537591 0 6.7297533-2.8984615 6.7139042-6.7661538-.015849-3.73476926-2.9296371-6.58646157-6.7236574-6.57907695"/><path d="m99.5329289 15.8772103c-1.953701-.0301539-3.4380261-1.6313847-3.4221771-3.6923077.0152395-1.9895385 1.5385777-3.55261542 3.4672859-3.55630773 1.9390713-.00430769 3.5069083 1.63569233 3.4813063 3.64123073-.026212 2.0289231-1.598316 3.6375385-3.5264151 3.6073847m.1048476-10.29969235c-3.8805806-.01784616-6.7669376 2.78215384-6.7864441 6.58276925-.0201161 3.8836923 2.8150363 6.7433846 6.7053701 6.7624615 3.8671695.0184616 6.7334105-2.8313846 6.7602325-6.7206154.025602-3.7187692-2.886967-6.60738458-6.6791585-6.62461535"/><path d="m43.5811263 5.83905641c-2.0341655-.61538462-3.9116691-.29538462-5.3624674 1.45723077-.0426705.05046154-.1304499.06276923-.2285921.10769231-.0219449-.49784616-.0414514-.95384616-.0621771-1.42646154h-3.0954427v12.57353845h3.2301597c0-.3421538-.0006096-.64 0-.9372308.0067053-2.0498461-.0225545-4.1003077.0323077-6.1483077.046328-1.71199995 1.2148911-2.85846149 2.7918722-2.86276918 1.6074601-.00430769 2.6120465 1.02030769 2.6534979 2.82461538.0481567 2.0763077.0213352 4.1544615.0268215 6.232.0006095.2935385 0 .5876923 0 .8873846h3.2332075c0-2.8695384.0993614-5.6941538-.0329173-8.5070769-.0969231-2.03876924-1.1801451-3.59384616-3.1862699-4.20061539"/><path d="m116.588952 5.86877949c-1.95431-.72861539-4.019564-.20615385-5.413062 1.31938461-.075588.08246154-.176778.14092308-.30479.24-.026212-.54276923-.047547-1-.070101-1.47015384h-3.064355v12.58030764h3.204558c0-.3852307-.001219-.7126153.000609-1.04.009754-2.076923-.034136-4.1563076.048157-6.2307692.064006-1.62399998 1.310595-2.69907691 2.890015-2.6633846 1.487373.03384616 2.443802 1.04307693 2.541335 2.6892308.018897.3316923.023164.6646154.023773.996923.001829 1.8.00061 3.6006154.00122 5.4006154v.8443077h3.250885c0-2.8012307.076807-5.544-.024993-8.28-.077416-2.06769228-1.077126-3.63876921-3.083251-4.38646151"/><path d="m78.3771205 1.44514872h-3.3319594v17.09907688h11.9635994v-3.296h-8.63164z"/><path d="m88.3277068 18.5502564h3.1704209v-12.5796923h-3.1704209z"/><path d="m89.9281567.47068718c-1.1636865.00738462-2.0445283.90953846-2.0079535 2.05538461.0359652 1.12738462.9064441 1.96061539 2.0335559 1.94461539 1.1362554-.01538462 1.9488244-.85538462 1.9482148-2.01353846 0-1.14338462-.8454862-1.99384616-1.9738172-1.98646154"/><path d="m120.46429 4.2897641c-1.022873 0-1.768998-.80923077-1.768998-1.82830769 0-1.00430769.746125-1.82769231 1.754978-1.82769231 1.009463 0 1.741567.82338462 1.741567 1.84184616 0 1.00492307-.732104 1.81415384-1.727547 1.81415384m-.01402-4.11630769c-1.299013 0-2.335907 1.01846154-2.335907 2.288 0 1.29846154 1.036894 2.31692308 2.335907 2.31692308 1.313643 0 2.322496-1.01846154 2.322496-2.31692308 0-1.26953846-1.008853-2.288-2.322496-2.288"/><path d="m120.353835 2.36428718h-.248709v-.656c.054862-.01415385.151785-.02769231.29016-.02769231.331611 0 .484006.13969231.484006.34892308 0 .23692308-.235298.33476923-.525457.33476923m.62177.16738461v-.0276923c.276749-.0843077.469986-.27938462.469986-.53046154 0-.22338462-.096923-.40492308-.221278-.50276923-.165805-.09723077-.359042-.16738462-.787576-.16738462-.373672 0-.663831.02830769-.871088.07015385v2.28861538h.525457v-.92123077h.248708c.29016 0 .428534.11138462.469986.36307693.069492.26461538.110334.47446154.179826.55815384h.566908c-.055472-.0836923-.096923-.22338461-.165805-.57230769-.069492-.30707692-.193847-.47446154-.415124-.55815385"/></g></g></svg>